# xmcd
#
# Track frame offsets: 
#        150
#        33750
#        57450
#
# Disc length: 835 seconds
#
# Revision: 2
# Processed by: cddbd v1.5.2PL0 Copyright (c) Steve Scherf et al.
# Submitted via: ExactAudioCopy v1.3
#
DISCID=1e034103
DTITLE=M.C.Sar and The Real McCoy feat. Sunday - Don't Stop
DYEAR=1990
DGENRE=House
TTITLE0=Don't Stop (Club Mix)
TTITLE1=Que Pasa (Remix)
TTITLE2=Que Pasa (Acappella)
EXTD=
EXTT0=
EXTT1=
EXTT2=
PLAYORDER=
